HIERARCHY
ROOT Hips
{
  OFFSET 0 0 0
  CHANNELS 6 Xposition Yposition Zposition Zrotation Yrotation Xrotation
  JOINT LeftThigh
  {
    OFFSET 8.409438 0 -5.917753
    CHANNELS 3 Zrotation Yrotation Xrotation
    JOINT LeftLeg
    {
      OFFSET 0 0 -42.358652
      CHANNELS 3 Zrotation Yrotation Xrotation
      JOINT LeftFoot
      {
        OFFSET 0 0 -39.357303
        CHANNELS 3 Zrotation Yrotation Xrotation
      }
    }
  }
  JOINT RightThigh
  {
    OFFSET -8.409438 0 -5.917753
    CHANNELS 3 Zrotation Yrotation Xrotation
    JOINT RightLeg
    {
      OFFSET 0 0 -42.358652
      CHANNELS 3 Zrotation Yrotation Xrotation
      JOINT RightFoot
      {
        OFFSET 0 0 -39.357303
        CHANNELS 3 Zrotation Yrotation Xrotation
      }
    }
  }
  JOINT SpineLow
  {
    OFFSET 0 0 4.719101
    CHANNELS 3 Zrotation Yrotation Xrotation
    JOINT SpineMid
    {
      OFFSET 0 0 12.899191
      CHANNELS 3 Zrotation Yrotation Xrotation
      JOINT Chest
      {
        OFFSET 0 0 12.899191
        CHANNELS 3 Zrotation Yrotation Xrotation
        JOINT LeftShoulder
        {
          OFFSET 7.550562 1.41573 9.438202
          CHANNELS 3 Zrotation Yrotation Xrotation
          JOINT LeftArm
          {
            OFFSET 9.155056 0 4.247191
            CHANNELS 3 Zrotation Yrotation Xrotation
            JOINT LeftForearm
            {
              OFFSET 0 0 25.771955
              CHANNELS 3 Zrotation Yrotation Xrotation
              JOINT LeftHand
              {
                OFFSET 0 0 25.197169
                CHANNELS 3 Zrotation Yrotation Xrotation
              }
            }
          }
        }
        JOINT RightShoulder
        {
          OFFSET -7.550562 1.41573 9.438202
          CHANNELS 3 Zrotation Yrotation Xrotation
          JOINT RightArm
          {
            OFFSET -9.155056 0 4.247191
            CHANNELS 3 Zrotation Yrotation Xrotation
            JOINT RightForearm
            {
              OFFSET 0 0 -25.771955
              CHANNELS 3 Zrotation Yrotation Xrotation
              JOINT RightHand
              {
                OFFSET 0 0 -25.197169
                CHANNELS 3 Zrotation Yrotation Xrotation
              }
            }
          }
        }
        JOINT Neck
        {
          OFFSET 0 0 15.101124
          CHANNELS 3 Zrotation Yrotation Xrotation
          JOINT Head
          {
            OFFSET 0 0 11.325843
            CHANNELS 3 Zrotation Yrotation Xrotation
            End Site
            {
              OFFSET 0 0 14.157303
            }
          }
        }
      }
    }
  }
}
MOTION
Frames: 18
Frame Time: 0.0
0.0  89.887642  0.0  0.905834  -16.512073  -96.339173  11.909982  -12.40991  3.198133  -2.262581  3.727656  21.049678  5.204251  1.859199  2.83529  0.624365  9.609008  -4.822726  3.835867  5.838061  13.507321  1.948149  0.146327  0.623152  0.746141  -0.567645  0.55944  2.026595  -1.568597  1.511753  2.026595  -1.568597  1.511753  -5.671496  25.238158  6.274084  135.862029  37.705543  -170.145431  6.85381  -5.737302  28.523895  81.944005  -4.579513  -3.256198  -0.337578  1.342637  23.291727  77.635489  34.650586  33.652502  2.805166  6.847184  -36.759047  91.056502  7.386205  -12.057455  -7.157059  4.058485  1.995053  -5.37888  3.021041  1.543516  
0.0  89.887642  0.0  0.904567  -16.768791  -96.396869  12.135922  -12.585745  3.100707  -2.314478  4.030326  21.382003  5.232663  1.86992  2.841762  0.701627  9.579628  -4.99255  4.032802  5.811926  13.798432  1.972222  0.154908  0.627755  0.765334  -0.567433  0.557356  2.079117  -1.568388  1.505602  2.079117  -1.568388  1.505602  -5.523387  25.282579  6.494364  135.80157  37.784337  -170.129115  6.294693  -5.595829  28.55674  81.845809  -4.605365  -3.251489  -0.231257  1.240389  23.505212  78.287304  35.003807  33.999598  2.747346  6.597231  -36.769988  90.953255  7.411438  -12.132811  -7.065481  4.06626  2.058525  -5.310669  3.026428  1.590579  
0.0  89.887642  0.0  0.913117  -17.066755  -96.460453  12.240513  -12.687003  2.994167  -2.225288  4.284232  21.75566  5.299741  1.868425  2.85928  0.812203  9.552379  -5.181456  4.245046  5.78943  14.116406  2.010471  0.152348  0.626537  0.791964  -0.571286  0.560225  2.151762  -1.579612  1.512687  2.151762  -1.579612  1.512687  -5.364159  25.329688  6.69959  135.91016  37.82652  -170.051708  5.81451  -5.465049  28.647417  81.800349  -4.646031  -3.208934  -0.133262  1.184752  23.706115  79.096782  35.290408  34.455149  2.556206  6.331333  -36.866751  90.842028  7.378657  -12.14533  -6.931327  4.098998  2.123683  -5.210612  3.050684  1.638893  
0.0  89.887642  0.0  0.897359  -17.41204  -96.547077  12.46169  -12.846338  2.943934  -2.169276  4.520628  22.084347  5.331438  1.871716  2.875377  1.0788  9.502145  -5.304107  4.326162  5.757802  14.411308  2.034555  0.164944  0.626332  0.827536  -0.578055  0.565528  2.248731  -1.599097  1.526098  2.248731  -1.599097  1.526098  -5.246691  25.326759  6.886894  136.009387  37.834595  -169.954045  5.339686  -5.319911  28.728371  81.740856  -4.62949  -3.142996  -0.065037  1.152461  23.88825  79.741669  35.550871  34.81093  2.440693  6.119392  -36.997843  90.788934  7.311071  -12.128311  -6.841784  4.134627  2.163773  -5.143843  3.077262  1.668733  
0.0  89.887642  0.0  0.88946  -17.811772  -96.672952  12.580218  -12.960892  2.860394  -1.850942  4.744031  22.58906  5.243769  1.821214  2.794889  1.313252  9.49835  -5.443199  4.591455  5.66646  14.797194  2.058525  0.161181  0.608487  0.872031  -0.587033  0.582213  2.369757  -1.625243  1.570306  2.369757  -1.625243  1.570306  -5.094011  25.314448  7.028008  136.119148  37.806262  -169.860886  4.880979  -5.176702  28.772132  81.627153  -4.61266  -3.050071  0.066783  1.137042  24.049865  80.38115  35.739829  35.161945  2.426029  5.952171  -37.143689  90.735439  7.164526  -12.124627  -6.712515  4.178015  2.208621  -5.04735  3.109758  1.701937  
0.0  89.887642  0.0  0.883304  -18.149929  -96.766469  12.765364  -13.094475  2.83368  -1.701459  4.957693  22.919369  5.258829  1.802505  2.804965  1.547469  9.487231  -5.605987  4.555833  5.620993  15.167971  2.101007  0.180474  0.592436  0.910962  -0.594975  0.595186  2.475679  -1.648345  1.604509  2.475679  -1.648345  1.604509  -5.009458  25.272514  7.13418  136.229019  37.753454  -169.751477  4.436144  -5.031693  28.827063  81.540867  -4.53071  -2.898019  0.108297  1.110012  24.1277  80.906114  35.890623  35.482917  2.339835  5.742194  -37.26959  90.699878  7.010898  -12.080335  -6.633142  4.218569  2.21992  -4.988028  3.140333  1.710287  
0.0  89.887642  0.0  0.87704  -18.44205  -96.824047  12.841787  -13.167222  2.751316  -1.486263  5.137554  23.260981  5.261371  1.772246  2.82229  1.554496  9.543417  -5.909158  4.441094  5.560788  15.610416  2.324245  0.197239  0.588054  0.942142  -0.603604  0.596127  2.560694  -1.672713  1.605969  2.560695  -1.672713  1.605969  -4.910298  25.225092  7.28213  136.285611  37.689577  -169.651306  3.935188  -4.907684  28.820916  81.477801  -4.504893  -2.655632  0.103021  1.085508  24.206756  81.539729  35.925246  35.804083  2.290244  5.53714  -37.343312  90.668343  6.80664  -12.061678  -6.490524  4.27014  2.285135  -4.881707  3.178828  1.758718  
0.0  89.887642  0.0  0.904594  -18.701914  -96.858323  12.92363  -13.237273  2.634585  -1.274808  5.348413  23.620824  5.276706  1.741386  2.847899  1.486345  9.596061  -6.268647  4.419782  5.521952  16.139202  2.429943  0.220742  0.562173  0.970445  -0.605432  0.594498  2.638066  -1.678322  1.600722  2.638067  -1.678322  1.600722  -4.827785  25.16996  7.411756  136.352566  37.619154  -169.565604  3.438586  -4.78381  28.848029  81.370299  -4.398987  -2.440217  0.120928  1.069449  24.278445  81.962915  36.004337  36.033786  2.274056  5.318978  -37.39863  90.707564  6.588209  -12.038924  -6.414549  4.302664  2.305038  -4.824981  3.203291  1.773434  
0.0  89.887642  0.0  0.907986  -18.720895  -96.770216  12.764939  -13.286353  2.3809  -1.171253  5.557533  23.939281  5.311316  1.733882  2.887833  0.840482  9.724716  -6.904496  4.21613  5.451667  16.70655  2.832155  0.291838  0.572687  0.962134  -0.603817  0.580183  2.61575  -1.673147  1.561867  2.61575  -1.673148  1.561867  -4.811109  25.101658  7.472863  136.445657  37.551837  -169.504339  2.997959  -4.696532  28.904343  81.197798  -4.260067  -2.241212  4.29E-4  1.051724  24.252694  82.369207  36.053468  36.147708  2.463709  5.16887  -37.413713  90.835463  6.323366  -12.021892  -6.292775  4.3151  2.325527  -4.733873  3.212853  1.788051  
0.0  89.887642  0.0  1.008297  -18.838781  -96.734526  12.613279  -13.262731  2.091384  -0.904164  5.834364  24.418507  5.336164  1.702125  2.92592  0.316468  9.909279  -7.52309  4.309956  5.347464  17.439132  3.077044  0.390678  0.521435  0.968526  -0.589699  0.572098  2.633741  -1.634394  1.540156  2.633741  -1.634394  1.540156  -4.76081  25.045601  7.543265  136.516825  37.52742  -169.452455  2.481451  -4.583559  28.949228  81.088392  -4.118737  -2.021839  0.078286  1.040336  24.325655  82.64084  36.164414  36.237725  2.573005  5.038915  -37.38295  90.982255  6.036557  -11.939277  -6.218584  4.314492  2.292145  -4.678015  3.213007  1.762487  
0.0  89.887642  0.0  1.011359  -18.511651  -96.477402  11.957742  -13.247668  1.539966  -0.866424  6.109298  24.787918  5.518988  1.767486  3.093173  -1.108189  10.068887  -8.573145  3.798836  5.318007  18.175862  4.12506  0.608679  0.549851  0.913001  -0.581962  0.534132  2.483055  -1.610551  1.438048  2.483054  -1.610551  1.438048  -4.71288  25.016796  7.619734  136.41929  37.589554  -169.432024  1.908253  -4.431456  28.968198  80.916878  -3.929752  -1.837914  -0.225187  1.051307  24.203793  82.642736  36.266491  36.002289  3.293429  5.147272  -37.265299  91.183735  5.704848  -11.829608  -6.117699  4.295852  2.266544  -4.602152  3.199646  1.742393  
0.0  89.887642  0.0  1.183154  -18.446465  -96.398249  11.507056  -13.116568  1.097561  -0.583415  6.424632  25.370244  5.56683  1.766194  3.168471  -1.844561  10.292855  -9.395845  3.919201  5.276004  19.137953  4.506869  0.71022  0.479169  0.902533  -0.550668  0.515837  2.455509  -1.524128  1.38944  2.455508  -1.524128  1.389439  -4.73237  24.954161  7.666706  136.459136  37.64306  -169.408245  1.320976  -4.258986  29.005935  80.774687  -3.756912  -1.603311  -0.123081  1.042436  24.290389  82.777189  36.311098  35.951077  3.502019  5.139481  -37.134287  91.34987  5.338589  -11.654422  -6.073573  4.263318  2.193248  -4.568467  3.176125  1.686813  
0.0  89.887642  0.0  1.283111  -17.851879  -96.12813  10.734453  -12.947971  0.535796  -0.469885  6.686033  25.880988  5.674494  1.816302  3.287648  -4.344276  10.336433  -10.870805  4.904208  5.161811  20.280813  5.188438  0.849299  0.452733  0.831581  -0.522643  0.474444  2.263022  -1.44465  1.278884  2.263022  -1.44465  1.278884  -4.729343  24.930088  7.704099  136.138343  37.772278  -169.456864  0.606422  -4.084043  28.951501  80.626801  -3.523434  -1.319721  -0.306503  1.050519  24.23807  81.96326  36.516453  35.216198  4.660227  5.398845  -36.901  91.493114  4.962876  -11.423005  -6.088883  4.202868  2.098787  -4.57913  3.131664  1.615515  
0.0  89.887642  0.0  1.562748  -17.448637  -96.012204  10.150225  -12.515561  0.083252  -0.330639  6.818868  26.404344  5.715596  1.83368  3.377533  -5.325171  10.553676  -11.708923  5.356214  5.158234  21.254736  5.383883  0.896362  0.390209  0.812432  -0.465662  0.455107  2.212105  -1.287914  1.228328  2.212105  -1.287913  1.228328  -5.013594  24.835862  7.63183  136.105957  37.949363  -169.418847  0.017666  -3.872304  28.935559  80.508105  -3.237711  -0.978889  -0.290882  1.024942  24.312853  81.830031  36.486907  34.95732  4.927256  5.378797  -36.686616  91.573056  4.593141  -11.14407  -6.190974  4.118236  1.959087  -4.654505  3.069253  1.510649  
0.0  89.887642  0.0  1.612082  -16.636365  -95.750685  9.325335  -12.207869  -0.554607  0.059602  6.925251  27.212463  5.396897  1.717982  3.222076  -7.925862  10.274417  -13.017392  6.815692  5.143153  22.379261  5.686677  0.998587  0.371598  0.768877  -0.440713  0.440667  2.093757  -1.218469  1.190491  2.093757  -1.218469  1.190491  -5.45606  24.75074  7.481915  135.897651  38.248469  -169.28396  -0.498111  -3.666639  28.824127  80.454148  -2.889987  -0.598751  -0.533727  1.021819  24.249071  81.610249  36.385323  34.619443  5.254181  5.341813  -36.458162  91.578148  4.735535  -11.028382  -6.488837  4.00718  1.731164  -4.876053  2.987441  1.340632  
0.0  89.887642  0.0  1.941608  -15.679439  -95.524441  8.621871  -11.651212  -1.401126  0.031271  7.074818  27.94217  5.371078  1.698015  3.284972  -9.200491  10.513238  -13.788745  7.277458  5.164859  23.22818  5.78149  1.053849  0.329273  0.724762  -0.370518  0.433505  1.974497  -1.025624  1.173804  1.974497  -1.025624  1.173805  -6.037448  24.598827  7.220655  135.751434  38.610332  -169.062743  -0.789467  -3.498566  28.718307  80.472812  -2.503577  -0.214327  -0.62516  1.021295  24.216925  81.149032  36.259872  34.140963  5.477732  5.190888  -36.255274  91.481215  4.487935  -10.836068  -6.816409  3.881299  1.47023  -5.119733  2.89503  1.14577  
0.0  89.887642  0.0  2.218688  -14.356786  -95.222022  7.92527  -11.179853  -2.46487  0.107118  7.246875  29.001828  5.101865  1.609447  3.207232  -10.577123  10.760599  -14.518226  7.458184  5.149701  24.001227  5.940535  1.164475  0.309857  0.705164  -0.351848  0.477597  1.920589  -0.97553  1.295164  1.920589  -0.97553  1.295164  -7.147582  24.693908  6.552072  135.29818  39.051101  -168.712996  -0.928183  -3.455377  28.48337  80.587444  -2.063726  0.185649  -1.141615  1.337426  23.803386  80.573546  36.051388  33.549851  5.647126  4.884874  -36.092813  91.312285  4.230405  -10.663268  -7.482983  3.865575  0.969922  -5.616264  2.887832  0.774701  
0.0  89.887642  0.0  2.507077  -12.65245  -94.872986  7.094386  -10.716594  -3.689959  -0.341952  7.583946  29.887659  5.017557  1.563063  3.266695  -12.038477  11.070797  -15.152076  7.65766  5.193056  24.696037  5.921539  1.198485  0.289665  0.589329  -0.307922  0.492712  1.604604  -0.853584  1.339251  1.604604  -0.853584  1.339252  -7.896115  24.653178  6.01201  134.793631  39.561562  -168.360133  -0.889139  -3.469175  28.346992  80.811458  -1.556235  0.579986  -1.056853  1.47532  23.693376  79.68523  35.855001  32.859837  5.684103  4.441346  -36.02025  91.07762  3.931024  -10.49967  -7.98514  3.783674  0.585037  -5.990308  2.83069  0.488222  
